<?xml version="1.0" encoding="UTF-8" standalone="no"?>
<svg
   xml:space="preserve"
   viewBox="0 0 16 16"
   version="1.1"
   id="svg20"
   sodipodi:docname="doctype-glossary-entry.svg"
   inkscape:version="1.2.2 (b0a8486541, 2022-12-01)"
   xmlns:inkscape="http://www.inkscape.org/namespaces/inkscape"
   xmlns:sodipodi="http://sodipodi.sourceforge.net/DTD/sodipodi-0.dtd"
   xmlns="http://www.w3.org/2000/svg"
   xmlns:svg="http://www.w3.org/2000/svg"><defs
     id="defs24" /><sodipodi:namedview
     id="namedview22"
     pagecolor="#ffffff"
     bordercolor="#666666"
     borderopacity="1.0"
     inkscape:showpageshadow="2"
     inkscape:pageopacity="0.0"
     inkscape:pagecheckerboard="0"
     inkscape:deskcolor="#d1d1d1"
     showgrid="true"
     showguides="true"
     inkscape:zoom="29.5"
     inkscape:cx="8.6610169"
     inkscape:cy="9.2881356"
     inkscape:window-width="1440"
     inkscape:window-height="831"
     inkscape:window-x="0"
     inkscape:window-y="0"
     inkscape:window-maximized="1"
     inkscape:current-layer="svg20"><inkscape:grid
       type="xygrid"
       id="grid314" /></sodipodi:namedview><g
     id="g10"><path
       fill="#EFEFEF"
       d="M2 0v16h12V4l-4-4H2z"
       id="path2" /><path
       fill="#FFF"
       d="M10 4V0l4 4h-4z"
       opacity=".65"
       id="path4" /><path
       fill="#212121"
       d="M13 5v5L9 5h4z"
       opacity=".2"
       id="path6" /><path
       fill="#999"
       d="M2 0v16h12V4l-4-4H2zm1 1h6v4h4v10H3V1zm7 .4L12.6 4H10V1.4z"
       id="path8" /></g><rect
     style="fill:#333333;stroke-width:0.999998;stroke-linecap:round;stroke-linejoin:round;paint-order:fill markers stroke"
     id="rect364"
     width="9"
     height="1"
     x="7"
     y="13"
     rx="0"
     ry="0" /><rect
     style="fill:#333333;stroke-width:0.999998;stroke-linecap:round;stroke-linejoin:round;paint-order:fill markers stroke"
     id="rect364-5"
     width="9"
     height="1"
     x="7"
     y="11"
     rx="0"
     ry="0" /><rect
     style="fill:#333333;stroke-width:0.999998;stroke-linecap:round;stroke-linejoin:round;paint-order:fill markers stroke"
     id="rect364-6"
     width="9"
     height="1"
     x="7"
     y="9"
     rx="0"
     ry="0" /><rect
     style="fill:#000000;stroke-width:0.999997;stroke-linecap:round;stroke-linejoin:round;paint-order:fill markers stroke"
     id="rect301"
     width="7"
     height="1"
     x="5"
     y="7"
     rx="0"
     ry="0" /></svg>
