<?xml version="1.0" encoding="UTF-8" standalone="no"?>
<svg
   xml:space="preserve"
   viewBox="0 0 16 16"
   version="1.1"
   id="svg20"
   sodipodi:docname="doctype-dictionary-entry.svg"
   inkscape:version="1.2.2 (b0a8486541, 2022-12-01)"
   xmlns:inkscape="http://www.inkscape.org/namespaces/inkscape"
   xmlns:sodipodi="http://sodipodi.sourceforge.net/DTD/sodipodi-0.dtd"
   xmlns="http://www.w3.org/2000/svg"
   xmlns:svg="http://www.w3.org/2000/svg"><defs
     id="defs24" /><sodipodi:namedview
     id="namedview22"
     pagecolor="#ffffff"
     bordercolor="#666666"
     borderopacity="1.0"
     inkscape:showpageshadow="2"
     inkscape:pageopacity="0.0"
     inkscape:pagecheckerboard="0"
     inkscape:deskcolor="#d1d1d1"
     showgrid="true"
     showguides="true"
     inkscape:zoom="29.5"
     inkscape:cx="10.186441"
     inkscape:cy="7.9322034"
     inkscape:window-width="1440"
     inkscape:window-height="831"
     inkscape:window-x="0"
     inkscape:window-y="0"
     inkscape:window-maximized="1"
     inkscape:current-layer="svg20"><inkscape:grid
       type="xygrid"
       id="grid314" /></sodipodi:namedview><g
     id="g10"><path
       fill="#EFEFEF"
       d="M2 0v16h12V4l-4-4H2z"
       id="path2" /><path
       fill="#FFF"
       d="M10 4V0l4 4h-4z"
       opacity=".65"
       id="path4" /><path
       fill="#212121"
       d="M13 5v5L9 5h4z"
       opacity=".2"
       id="path6" /><path
       fill="#999"
       d="M2 0v16h12V4l-4-4H2zm1 1h6v4h4v10H3V1zm7 .4L12.6 4H10V1.4z"
       id="path8" /></g><g
     aria-label="\a\"
     id="text389"
     style="font-size:9.20245px;line-height:1.25;font-family:'Noto Color Emoji';-inkscape-font-specification:'Noto Color Emoji';letter-spacing:-0.4px;stroke-width:0.999998"><path
       d="M 7.0805985,15.472392 H 7.9640337 L 6.1051388,7.4662606 H 5.2217036 Z"
       style="font-weight:bold;font-family:'Source Sans 3';-inkscape-font-specification:'Source Sans 3 Bold'"
       id="path416" /><path
       d="m 9.4321374,14.110429 c 0.5153372,0 0.9294476,-0.239263 1.3251526,-0.579754 H 10.7941 L 10.886124,14 h 1.104294 v -2.604293 c 0,-1.4079751 -0.644171,-2.0705515 -1.812882,-2.0705515 -0.7177912,0 -1.3711652,0.2392637 -1.9509195,0.5981592 L 8.7051439,10.80675 c 0.45092,-0.257669 0.8282205,-0.395705 1.2147234,-0.395705 0.4877297,0 0.6901837,0.248466 0.7177907,0.644171 -1.8036798,0.184049 -2.5674832,0.699386 -2.5674832,1.674846 0,0.773006 0.5245397,1.380367 1.3619626,1.380367 z m 0.4509201,-1.058281 c -0.3128833,0 -0.5153372,-0.138037 -0.5153372,-0.423313 0,-0.349693 0.3128833,-0.598159 1.2699377,-0.726994 v 0.773006 c -0.230061,0.239264 -0.45092,0.377301 -0.7546005,0.377301 z"
       style="font-weight:bold;font-family:'Source Sans 3';-inkscape-font-specification:'Source Sans 3 Bold'"
       id="path418" /><path
       d="m 14.249931,15.472392 h 0.883435 L 13.274471,7.4662606 h -0.883435 z"
       style="font-weight:bold;font-family:'Source Sans 3';-inkscape-font-specification:'Source Sans 3 Bold'"
       id="path420" /></g></svg>
