<?xml version="1.0" encoding="UTF-8" standalone="no"?>
<svg
   xml:space="preserve"
   viewBox="0 0 16 16"
   version="1.1"
   id="svg20"
   sodipodi:docname="doctype-encyclopedia-entry.svg"
   inkscape:version="1.2.2 (b0a8486541, 2022-12-01)"
   xmlns:inkscape="http://www.inkscape.org/namespaces/inkscape"
   xmlns:sodipodi="http://sodipodi.sourceforge.net/DTD/sodipodi-0.dtd"
   xmlns="http://www.w3.org/2000/svg"
   xmlns:svg="http://www.w3.org/2000/svg"><defs
     id="defs24" /><sodipodi:namedview
     id="namedview22"
     pagecolor="#ffffff"
     bordercolor="#666666"
     borderopacity="1.0"
     inkscape:showpageshadow="2"
     inkscape:pageopacity="0.0"
     inkscape:pagecheckerboard="0"
     inkscape:deskcolor="#d1d1d1"
     showgrid="true"
     showguides="true"
     inkscape:zoom="29.5"
     inkscape:cx="9.5084746"
     inkscape:cy="7.9322034"
     inkscape:window-width="1440"
     inkscape:window-height="831"
     inkscape:window-x="0"
     inkscape:window-y="0"
     inkscape:window-maximized="1"
     inkscape:current-layer="svg20"><inkscape:grid
       type="xygrid"
       id="grid314" /></sodipodi:namedview><g
     id="g10"><path
       fill="#EFEFEF"
       d="M2 0v16h12V4l-4-4H2z"
       id="path2" /><path
       fill="#FFF"
       d="M10 4V0l4 4h-4z"
       opacity=".65"
       id="path4" /><path
       fill="#212121"
       d="M13 5v5L9 5h4z"
       opacity=".2"
       id="path6" /><path
       fill="#999"
       d="M2 0v16h12V4l-4-4H2zm1 1h6v4h4v10H3V1zm7 .4L12.6 4H10V1.4z"
       id="path8" /></g><g
     aria-label="A-Z"
     id="text389"
     style="font-size:9.20245px;line-height:1.25;font-family:'Noto Color Emoji';-inkscape-font-specification:'Noto Color Emoji';letter-spacing:-0.4px;stroke-width:0.999998"><path
       d="M 6.0975489,10.963192 C 6.263193,10.365032 6.4196346,9.6656461 6.5668738,9.0306771 h 0.03681 c 0.1564416,0.6257666 0.3220857,1.3343549 0.4877298,1.9325149 l 0.1380368,0.552147 H 5.9503097 Z M 3.9257707,14 h 1.3803675 l 0.368098,-1.42638 H 7.5055237 L 7.8736217,14 H 9.3092038 L 7.4319041,8.0000027 H 5.8030705 Z"
       style="font-weight:bold;font-family:'Source Sans 3';-inkscape-font-specification:'Source Sans 3 Bold'"
       id="path301" /><path
       d="M 9.2496938,12.150308 H 11.513496 V 11.193253 H 9.2496938 Z"
       style="font-weight:bold;font-family:'Source Sans 3';-inkscape-font-specification:'Source Sans 3 Bold'"
       id="path303" /><path
       d="M 11.656444,14 H 16 V 12.858896 H 13.322087 L 15.972393,8.8190208 V 8.0000027 H 11.90491 v 1.1411038 h 2.401839 l -2.650305,4.0398755 z"
       style="font-weight:bold;font-family:'Source Sans 3';-inkscape-font-specification:'Source Sans 3 Bold'"
       id="path305" /></g></svg>
