<?xml version="1.0" encoding="UTF-8" standalone="no"?>
<svg
   viewBox="0 0 64 64"
   version="1.1"
   id="svg334"
   sodipodi:docname="Extension.svg"
   inkscape:version="1.2.2 (b0a8486541, 2022-12-01)"
   xml:space="preserve"
   inkscape:export-filename="Extension.png"
   inkscape:export-xdpi="1500"
   inkscape:export-ydpi="1500"
   xmlns:inkscape="http://www.inkscape.org/namespaces/inkscape"
   xmlns:sodipodi="http://sodipodi.sourceforge.net/DTD/sodipodi-0.dtd"
   xmlns:xlink="http://www.w3.org/1999/xlink"
   xmlns="http://www.w3.org/2000/svg"
   xmlns:svg="http://www.w3.org/2000/svg"><defs
     id="defs338"><linearGradient
       inkscape:collect="always"
       id="linearGradient1200"><stop
         style="stop-color:#9b1526;stop-opacity:1;"
         offset="0"
         id="stop1196" /><stop
         style="stop-color:#ca1428;stop-opacity:1;"
         offset="1"
         id="stop1198" /></linearGradient><linearGradient
       inkscape:collect="always"
       xlink:href="#linearGradient1200"
       id="linearGradient1202"
       x1="0"
       y1="64"
       x2="64"
       y2="0"
       gradientUnits="userSpaceOnUse" /></defs><sodipodi:namedview
     id="namedview336"
     pagecolor="#ffffff"
     bordercolor="#666666"
     borderopacity="1.0"
     inkscape:showpageshadow="2"
     inkscape:pageopacity="0.0"
     inkscape:pagecheckerboard="0"
     inkscape:deskcolor="#d1d1d1"
     showgrid="false"
     showguides="true"
     inkscape:zoom="2.6074563"
     inkscape:cx="35.091672"
     inkscape:cy="77.853654"
     inkscape:window-width="1440"
     inkscape:window-height="831"
     inkscape:window-x="0"
     inkscape:window-y="0"
     inkscape:window-maximized="1"
     inkscape:current-layer="svg334" /><path
     fill="#FF8700"
     d="M0 0h64v64H0z"
     id="path330"
     style="fill:url(#linearGradient1202);fill-opacity:1" /><path
     id="rect668"
     style="color:#000000;fill:#ffffff;fill-opacity:1;stroke-width:0.999997;stroke-linecap:round;stroke-linejoin:round;-inkscape-stroke:none;paint-order:fill markers stroke"
     d="m 22.762186,10.623676 c -5.018141,0 -9.154041,4.135879 -9.154041,9.154011 v 24.444625 c 0,5.018131 4.1359,9.15401 9.154041,9.15401 H 41.23784 c 5.01811,0 9.154013,-4.135879 9.154013,-9.15401 V 19.777687 c 0,-5.018132 -4.135903,-9.154011 -9.154013,-9.154011 z m 0,6.130595 h 5.02332 v 12.249247 l 6.17252,-3.640041 6.088718,3.640041 V 16.754271 h 1.191005 c 1.727815,0 3.023399,1.295605 3.023399,3.023416 v 24.444625 c 0,1.72781 -1.295584,3.023378 -3.023399,3.023378 H 22.762095 c -1.727809,0 -3.02342,-1.295568 -3.02342,-3.023378 V 19.777687 c 0,-1.727811 1.295611,-3.023416 3.02342,-3.023416 z"
     sodipodi:nodetypes="sssssssssccccccssssssssc" /></svg>
