<?xml version="1.0" encoding="UTF-8" standalone="no"?>
<!-- Created with Inkscape (http://www.inkscape.org/) -->

<svg
   width="16"
   height="16"
   viewBox="0 0 16 16.000001"
   version="1.1"
   id="svg857"
   xml:space="preserve"
   inkscape:version="1.2.2 (b0a8486541, 2022-12-01)"
   sodipodi:docname="LexicographicResource.svg"
   xmlns:inkscape="http://www.inkscape.org/namespaces/inkscape"
   xmlns:sodipodi="http://sodipodi.sourceforge.net/DTD/sodipodi-0.dtd"
   xmlns="http://www.w3.org/2000/svg"
   xmlns:svg="http://www.w3.org/2000/svg"><sodipodi:namedview
     id="namedview859"
     pagecolor="#ffffff"
     bordercolor="#666666"
     borderopacity="1.0"
     inkscape:showpageshadow="2"
     inkscape:pageopacity="0.0"
     inkscape:pagecheckerboard="0"
     inkscape:deskcolor="#d1d1d1"
     inkscape:document-units="px"
     showgrid="true"
     inkscape:zoom="26.910887"
     inkscape:cx="5.945549"
     inkscape:cy="6.0941877"
     inkscape:window-width="1440"
     inkscape:window-height="831"
     inkscape:window-x="0"
     inkscape:window-y="0"
     inkscape:window-maximized="1"
     inkscape:current-layer="layer1"><inkscape:grid
       type="xygrid"
       id="grid987"
       spacingx="1"
       spacingy="1"
       originx="0"
       originy="0" /></sodipodi:namedview><defs
     id="defs854"><symbol
       viewBox="0 0 16 16"
       id="content-beside-text-img-above-center"><path
         fill="#ffffff"
         d="M 1,1 H 15 V 15 H 1 Z"
         id="path13216" /><path
         fill="#999999"
         d="M 14,2 V 14 H 2 V 2 H 14 M 15,1 H 1 v 14 h 14 z"
         id="path13218" /><path
         fill="#5599ff"
         d="m 5,3 h 6 V 9 H 5 Z"
         id="path13220" /><path
         fill="#ffffff"
         d="M 9,8 H 6 L 6.75,7 7.5,6 8.25,7 Z"
         id="path13222" /><path
         fill="#ffffff"
         d="M 10,8 H 7.333 L 8,7.333 8.667,6.667 9.333,7.333 Z"
         id="path13224" /><circle
         cx="9.5"
         cy="5.5"
         r="0.5"
         fill="#ffffff"
         id="circle13226" /><g
         id="g13232"><path
           fill="#b9b9b9"
           d="m 3,12 h 10 v 1 H 3 Z"
           id="path13228" /><path
           fill="#666666"
           d="m 3,10 h 10 v 1 H 3 Z"
           id="path13230" /></g></symbol><symbol
       viewBox="0 0 16 16"
       id="content-beside-text-img-above-right"><path
         fill="#ffffff"
         d="M 1,1 H 15 V 15 H 1 Z"
         id="path13254" /><path
         fill="#999999"
         d="M 14,2 V 14 H 2 V 2 H 14 M 15,1 H 1 v 14 h 14 z"
         id="path13256" /><path
         fill="#5599ff"
         d="m 7,3 h 6 V 9 H 7 Z"
         id="path13258" /><path
         fill="#ffffff"
         d="M 11,8 H 8 L 8.75,7 9.5,6 10.25,7 Z"
         id="path13260" /><path
         fill="#ffffff"
         d="M 12,8 H 9.333 L 10,7.333 10.667,6.667 11.333,7.333 Z"
         id="path13262" /><circle
         cx="11.5"
         cy="5.5"
         r="0.5"
         fill="#ffffff"
         id="circle13264" /><g
         id="g13270"><path
           fill="#b9b9b9"
           d="m 3,12 h 10 v 1 H 3 Z"
           id="path13266" /><path
           fill="#666666"
           d="m 3,10 h 10 v 1 H 3 Z"
           id="path13268" /></g></symbol></defs><g
     inkscape:label="Layer 1"
     inkscape:groupmode="layer"
     id="layer1"><rect
       style="fill:#efefef;fill-opacity:1;stroke:#666666;stroke-width:1;stroke-linecap:square;stroke-linejoin:miter;stroke-dasharray:none;stroke-opacity:1;paint-order:fill markers stroke"
       id="rect3760"
       width="11"
       height="15"
       x="2.5"
       y="0.5" /><rect
       style="fill:#b9b9b9;fill-opacity:1;stroke:none;stroke-width:0.999997;stroke-linecap:square;stroke-linejoin:miter;stroke-dasharray:none;stroke-opacity:1;paint-order:fill markers stroke"
       id="rect2135"
       width="4"
       height="1"
       x="4"
       y="2"
       ry="0"
       rx="0" /><rect
       style="fill:#b9b9b9;fill-opacity:1;stroke:none;stroke-width:0.999997;stroke-linecap:square;stroke-linejoin:miter;stroke-dasharray:none;stroke-opacity:1;paint-order:fill markers stroke"
       id="rect2241"
       width="6"
       height="1"
       x="6"
       y="4" /><rect
       style="fill:#b9b9b9;fill-opacity:1;stroke:none;stroke-width:0.999997;stroke-linecap:square;stroke-linejoin:miter;stroke-dasharray:none;stroke-opacity:1;paint-order:fill markers stroke"
       id="rect2973"
       width="4"
       height="1"
       x="4"
       y="9" /><rect
       style="fill:#b9b9b9;fill-opacity:1;stroke:none;stroke-width:0.999997;stroke-linecap:square;stroke-linejoin:miter;stroke-dasharray:none;stroke-opacity:1;paint-order:fill markers stroke"
       id="rect2975"
       width="6"
       height="1"
       x="6"
       y="11" /><rect
       style="fill:#b9b9b9;fill-opacity:1;stroke:none;stroke-width:0.999995;stroke-linecap:square;stroke-linejoin:miter;stroke-dasharray:none;stroke-opacity:1;paint-order:fill markers stroke"
       id="rect2977"
       width="5"
       height="1"
       x="6"
       y="13" /><rect
       style="fill:#b9b9b9;fill-opacity:1;stroke:none;stroke-width:0.999995;stroke-linecap:square;stroke-linejoin:miter;stroke-dasharray:none;stroke-opacity:1;paint-order:fill markers stroke"
       id="rect2979"
       width="5"
       height="1"
       x="6"
       y="6" /></g></svg>
